<mxfile host="Electron" modified="2024-01-24T10:12:25.495Z" agent="Mozilla/5.0 (Macintosh; Intel Mac OS X 10_15_7) AppleWebKit/537.36 (KHTML, like Gecko) draw.io/22.1.21 Chrome/120.0.6099.109 Electron/28.1.0 Safari/537.36" etag="9yM0_wBpcS-dSBjJZPpe" version="22.1.21" type="device">
  <diagram name="Page-1" id="qCLb-ooyRNMUHMCF8lpI">
    <mxGraphModel dx="1434" dy="931" grid="1" gridSize="10" guides="1" tooltips="1" connect="1" arrows="1" fold="1" page="1" pageScale="1" pageWidth="1200" pageHeight="800" background="#FFFFCC" math="0" shadow="0">
      <root>
        <mxCell id="0" />
        <mxCell id="1" parent="0" />
        <mxCell id="zNT_SMo8weagiPJWRwsJ-42" style="edgeStyle=orthogonalEdgeStyle;rounded=1;orthogonalLoop=1;jettySize=auto;html=1;exitX=1;exitY=0.5;exitDx=0;exitDy=0;entryX=0;entryY=0.5;entryDx=0;entryDy=0;strokeColor=#6c8ebf;sketch=1;curveFitting=1;jiggle=2;strokeWidth=2;fillColor=#dae8fc;startArrow=classic;startFill=1;" parent="1" source="zNT_SMo8weagiPJWRwsJ-8" target="zNT_SMo8weagiPJWRwsJ-41" edge="1">
          <mxGeometry relative="1" as="geometry" />
        </mxCell>
        <mxCell id="zNT_SMo8weagiPJWRwsJ-43" style="edgeStyle=orthogonalEdgeStyle;rounded=0;orthogonalLoop=1;jettySize=auto;html=1;exitX=0.25;exitY=1;exitDx=0;exitDy=0;entryX=0.193;entryY=-0.019;entryDx=0;entryDy=0;entryPerimeter=0;endArrow=none;endFill=0;startArrow=classic;startFill=1;sketch=1;curveFitting=1;jiggle=2;strokeWidth=2;fillColor=#e1d5e7;strokeColor=#9673a6;" parent="1" source="zNT_SMo8weagiPJWRwsJ-8" edge="1">
          <mxGeometry relative="1" as="geometry">
            <mxPoint x="360.72" y="638.96" as="targetPoint" />
            <Array as="points">
              <mxPoint x="360" y="560" />
            </Array>
          </mxGeometry>
        </mxCell>
        <mxCell id="zNT_SMo8weagiPJWRwsJ-44" value="&amp;nbsp;USB (Host Keyboard)&amp;nbsp;" style="edgeLabel;html=1;align=center;verticalAlign=middle;resizable=0;points=[];fontSize=18;labelBorderColor=default;" parent="zNT_SMo8weagiPJWRwsJ-43" vertex="1" connectable="0">
          <mxGeometry x="-0.0388" y="-1" relative="1" as="geometry">
            <mxPoint y="-16" as="offset" />
          </mxGeometry>
        </mxCell>
        <mxCell id="zNT_SMo8weagiPJWRwsJ-8" value="Computer&lt;br&gt;(Synthesizer)" style="rounded=1;whiteSpace=wrap;html=1;fillColor=#d5e8d4;strokeColor=#82b366;fontStyle=0;fontSize=23;strokeWidth=2;glass=0;shadow=0;sketch=1;curveFitting=1;jiggle=2;" parent="1" vertex="1">
          <mxGeometry x="280" y="320.48" width="320" height="160" as="geometry" />
        </mxCell>
        <mxCell id="zNT_SMo8weagiPJWRwsJ-40" value="Multi-Touch Controller" style="shape=cube;whiteSpace=wrap;html=1;boundedLbl=1;backgroundOutline=1;darkOpacity=0.05;darkOpacity2=0.1;sketch=1;curveFitting=1;jiggle=2;fillColor=#e1d5e7;strokeColor=#9673a6;shadow=1;fontSize=23;" parent="1" vertex="1">
          <mxGeometry x="80" y="640" width="1040" height="80" as="geometry" />
        </mxCell>
        <mxCell id="zNT_SMo8weagiPJWRwsJ-51" style="edgeStyle=orthogonalEdgeStyle;orthogonalLoop=1;jettySize=auto;html=1;sketch=1;curveFitting=1;jiggle=2;curved=1;strokeWidth=2;fillColor=#f8cecc;strokeColor=#b85450;" parent="1" source="zNT_SMo8weagiPJWRwsJ-41" target="zNT_SMo8weagiPJWRwsJ-49" edge="1">
          <mxGeometry relative="1" as="geometry">
            <Array as="points">
              <mxPoint x="780" y="280" />
              <mxPoint x="140" y="280" />
            </Array>
          </mxGeometry>
        </mxCell>
        <mxCell id="zNT_SMo8weagiPJWRwsJ-52" style="edgeStyle=orthogonalEdgeStyle;orthogonalLoop=1;jettySize=auto;html=1;exitX=0.5;exitY=0;exitDx=0;exitDy=0;entryX=0.5;entryY=1;entryDx=0;entryDy=0;curved=1;sketch=1;curveFitting=1;jiggle=2;strokeWidth=2;fillColor=#f8cecc;strokeColor=#b85450;" parent="1" source="zNT_SMo8weagiPJWRwsJ-41" target="zNT_SMo8weagiPJWRwsJ-50" edge="1">
          <mxGeometry relative="1" as="geometry">
            <Array as="points">
              <mxPoint x="780" y="280" />
              <mxPoint x="1060" y="280" />
            </Array>
          </mxGeometry>
        </mxCell>
        <mxCell id="zNT_SMo8weagiPJWRwsJ-41" value="Sound Card" style="rounded=1;whiteSpace=wrap;html=1;fillColor=#f8cecc;strokeColor=#b85450;fontStyle=0;fontSize=23;strokeWidth=2;sketch=1;curveFitting=1;jiggle=2;glass=0;shadow=0;" parent="1" vertex="1">
          <mxGeometry x="680" y="360.48" width="200" height="80" as="geometry" />
        </mxCell>
        <mxCell id="zNT_SMo8weagiPJWRwsJ-45" style="edgeStyle=orthogonalEdgeStyle;rounded=0;orthogonalLoop=1;jettySize=auto;html=1;exitX=0.25;exitY=1;exitDx=0;exitDy=0;entryX=0.193;entryY=-0.019;entryDx=0;entryDy=0;entryPerimeter=0;endArrow=none;endFill=0;startArrow=classic;startFill=1;sketch=1;curveFitting=1;jiggle=2;strokeWidth=2;fillColor=#e1d5e7;strokeColor=#9673a6;" parent="1" edge="1">
          <mxGeometry relative="1" as="geometry">
            <mxPoint x="520" y="480.48" as="sourcePoint" />
            <mxPoint x="521" y="638.48" as="targetPoint" />
            <Array as="points">
              <mxPoint x="520" y="590" />
              <mxPoint x="521" y="590" />
            </Array>
          </mxGeometry>
        </mxCell>
        <mxCell id="zNT_SMo8weagiPJWRwsJ-46" value="&lt;font style=&quot;font-size: 18px;&quot;&gt;&amp;nbsp;USB (TouchKeys)&amp;nbsp;&lt;/font&gt;" style="edgeLabel;html=1;align=center;verticalAlign=middle;resizable=0;points=[];fontSize=16;labelBorderColor=default;" parent="zNT_SMo8weagiPJWRwsJ-45" vertex="1" connectable="0">
          <mxGeometry x="-0.0388" y="-1" relative="1" as="geometry">
            <mxPoint y="24" as="offset" />
          </mxGeometry>
        </mxCell>
        <mxCell id="zNT_SMo8weagiPJWRwsJ-49" value="Speaker (L)" style="rounded=1;whiteSpace=wrap;html=1;fillColor=#ffe6cc;strokeColor=#d79b00;fontStyle=0;fontSize=23;strokeWidth=2;glass=0;shadow=0;sketch=1;curveFitting=1;jiggle=2;" parent="1" vertex="1">
          <mxGeometry x="80" y="80" width="120" height="160" as="geometry" />
        </mxCell>
        <mxCell id="zNT_SMo8weagiPJWRwsJ-50" value="Speaker (R)" style="rounded=1;whiteSpace=wrap;html=1;fillColor=#ffe6cc;strokeColor=#d79b00;fontStyle=0;fontSize=23;strokeWidth=2;glass=0;shadow=0;sketch=1;curveFitting=1;jiggle=2;" parent="1" vertex="1">
          <mxGeometry x="1000" y="80" width="120" height="160" as="geometry" />
        </mxCell>
        <mxCell id="zNT_SMo8weagiPJWRwsJ-53" value="&lt;font style=&quot;font-size: 36px;&quot;&gt;The Instrument: P-6&lt;/font&gt;" style="text;html=1;align=center;verticalAlign=middle;whiteSpace=wrap;rounded=0;sketch=1;curveFitting=1;jiggle=2;shadow=0;fillColor=#f5f5f5;strokeColor=#666666;fontColor=#333333;" parent="1" vertex="1">
          <mxGeometry x="400" y="80" width="400" height="80" as="geometry" />
        </mxCell>
      </root>
    </mxGraphModel>
  </diagram>
</mxfile>
